<svg id="euGtSJd7Ula1" xmlns="http://www.w3.org/2000/svg" xmlns:xlink="http://www.w3.org/1999/xlink" viewBox="0 0 64 96" shape-rendering="geometricPrecision" text-rendering="geometricPrecision" width="64" height="96" style="background-color:transparent"><g transform="translate(0 16)"><path d="M32,6c-7.710938,0-14,6.289062-14,14c0,4.1875,2.070312,7.742188,5,10.3125l-4.1875,7.75C18.539062,38.023438,18.28125,38,18,38c-3.289062,0-6,2.710938-6,6s2.710938,6,6,6s6-2.710938,6-6c0-1.59375-.65625-3.046875-1.6875-4.125L28,29.3125l-1.5-1C23.804688,26.523438,22,23.492188,22,20c0-5.546875,4.453125-10,10-10s10,4.453125,10,10c0,1.171875-.195312,2.273438-.5625,3.3125l3.75,1.375C45.710938,23.226562,46,21.632812,46,20c0-7.710938-6.289062-14-14-14Zm0,8c-3.289062,0-6,2.710938-6,6s2.710938,6,6,6c.28125,0,.539062-.023438.8125-.0625l5.5,8.75l1,1.625l1.6875-1C42.46875,34.460938,44.171875,34,46,34c5.546875,0,10,4.453125,10,10s-4.453125,10-10,10c-2.976562,0-5.609375-1.265625-7.4375-3.3125l-3,2.625C38.125,56.171875,41.867188,58,46,58c7.710938,0,14-6.289062,14-14s-6.289062-14-14-14c-1.84375,0-3.445312.726562-5.0625,1.375L36.375,24.0625C37.375,22.992188,38,21.5625,38,20c0-3.289062-2.710938-6-6-6Zm0,4c1.125,0,2,.875,2,2s-.875,2-2,2-2-.875-2-2s.875-2,2-2ZM15.6875,30.1875c-1.601562.273438-3.203125.828125-4.6875,1.6875C4.328125,35.726562,2.023438,44.328125,5.875,51s12.445312,8.976562,19.125,5.125c3.820312-2.210938,5.882812-6.0625,6.5-10.125h8.875c.835938,2.3125,3.039062,4,5.625,4c3.289062,0,6-2.710938,6-6s-2.710938-6-6-6c-2.585938,0-4.789062,1.6875-5.625,4L28,42v2c0,3.453125-1.78125,6.828125-5,8.6875C18.195312,55.460938,12.085938,53.804688,9.3125,49s-1.117188-10.914062,3.6875-13.6875c1.0625-.617188,2.171875-.992188,3.3125-1.1875ZM18,42c1.125,0,2,.875,2,2s-.875,2-2,2-2-.875-2-2s.875-2,2-2Zm28,0c1.125,0,2,.875,2,2s-.875,2-2,2-2-.875-2-2s.875-2,2-2Zm0,0" fill="#fff"/></g></svg>